<svg xmlns="http://www.w3.org/2000/svg" width="1165.81" height="634.08" viewBox="0 0 1165.81 634.08">
  <g id="Grupo_942" data-name="Grupo 942" transform="translate(10982.412 15523.24)">
    <g id="Grupo_525" data-name="Grupo 525" transform="translate(-10982.412 -15234.45)">
      <path id="Trazado_1522" data-name="Trazado 1522" d="M0,9.968s192.893-49.38,352.061,71.677v47.512C352.061,129.274,259.6-13.613,0,9.968Z" transform="translate(352.061 247.095) rotate(180)" fill="#24f1a2"/>
      <path id="Trazado_1523" data-name="Trazado 1523" d="M0,266.951S39.892,334.8,228.539,344.585c265.448,13.868,360.517-180.9,538.353-226.339,266.194-67.976,398.918,63.766,398.918,63.766V0H0Z" transform="translate(1165.809 345.29) rotate(180)" fill="#464eb8"/>
      <path id="Trazado_1524" data-name="Trazado 1524" d="M0,220.726s39.653,56.1,227.172,64.191C491.033,296.383,585.534,135.343,762.306,97.771c264.6-56.205,396.532,52.724,396.532,52.724V0H0Z" transform="translate(1165.809 345.29) rotate(180)" fill="#6e65ff"/>
    </g>
    <g id="Rectángulo_1261" data-name="Rectángulo 1261" transform="translate(-10982 -15523.24)" fill="#fff" stroke="#fff" stroke-width="1">
      <rect width="1165" height="189" stroke="none"/>
      <rect x="0.5" y="0.5" width="1164" height="188" fill="none"/>
    </g>
  </g>
</svg>
